<svg width="640" height="480" xmlns="http://www.w3.org/2000/svg" xmlns:xlink="http://www.w3.org/1999/xlink"><defs><symbol viewBox="0 0 481.6 481.6" id="a" xmlns:xlink="http://www.w3.org/1999/xlink" xmlns="http://www.w3.org/2000/svg"><path d="M422.2 24.5H59.4C26.7 24.5 0 51.1 0 83.9V314c0 32.7 26.6 59.4 59.4 59.4h167.9v56.7h-83.7c-7.5 0-13.5 6-13.5 13.5s6 13.5 13.5 13.5H338c7.5 0 13.5-6 13.5-13.5s-6-13.5-13.5-13.5h-83.7v-56.7h167.9c32.7 0 59.4-26.6 59.4-59.4V83.9c0-32.8-26.6-59.4-59.4-59.4zm-362.8 27h362.9c17.8 0 32.4 14.5 32.4 32.4v192.3H27V83.9C27 66 41.5 51.5 59.4 51.5zm362.8 294.9H59.4C41.6 346.4 27 331.9 27 314v-10.8h427.6V314c0 17.8-14.5 32.4-32.4 32.4z" fill="#fff"/></symbol></defs><title>Layer 1</title><path fill="#0c141f" d="M-.25-.094h216.047v216.047H-.25z"/><use x="9.594" y="88.042" transform="scale(.33223)" xlink:href="#a"/></svg>