<svg xmlns="http://www.w3.org/2000/svg" viewBox="0 0 512 512"><path d="M0 256.006C0 397.402 114.606 512.004 255.996 512 397.394 512.004 512 397.402 512 256.006 512.009 114.61 397.394 0 255.996 0 114.606 0 0 114.614 0 256.006z" fill="#fa6e51"/><path d="M512 256.005c.002-34.951-7.022-68.255-19.7-98.606-.349-.395-67.393-67.577-68.033-68.033-1.281-1.797-3.28-3.045-5.658-3.045a7.066 7.066 0 0 0-7.07 7.07v230.38L282.208 194.442a7.068 7.068 0 0 0-9.998 0 7.068 7.068 0 0 0 0 9.998l44.491 44.491H93.391a7.066 7.066 0 0 0-7.07 7.07c0 2.378 1.247 4.375 3.045 5.657a6.872 6.872 0 0 0 1.632 1.632c.457.641 236.014 236.198 236.655 236.655.397.557.885 1.004 1.418 1.418C434.847 469.91 512 372.001 512 256.005z" fill="#e8573f"/><g fill="#f4f6f9"><path d="M340.296 253.301a7.051 7.051 0 0 0-1.536-2.308l-56.55-56.55a7.066 7.066 0 0 0-9.997 0 7.066 7.066 0 0 0 0 9.997l44.491 44.491H93.392a7.066 7.066 0 0 0-7.07 7.07 7.066 7.066 0 0 0 7.07 7.07h223.311l-44.491 44.491a7.066 7.066 0 0 0 0 9.997c1.381 1.381 3.189 2.071 4.998 2.071s3.618-.69 4.998-2.071l56.55-56.55a7.062 7.062 0 0 0 1.536-2.308 7.074 7.074 0 0 0 .002-5.4zM418.608 86.322a7.066 7.066 0 0 0-7.07 7.07v325.217c0 3.908 3.162 7.07 7.07 7.07s7.07-3.162 7.07-7.07V93.392a7.066 7.066 0 0 0-7.07-7.07z"/></g></svg>