<?xml version="1.0" encoding="iso-8859-1"?>
<!-- Generator: Adobe Illustrator 19.0.0, SVG Export Plug-In . SVG Version: 6.00 Build 0)  -->
<svg version="1.1" id="Layer_1" xmlns="http://www.w3.org/2000/svg" xmlns:xlink="http://www.w3.org/1999/xlink" x="0px" y="0px"
	 viewBox="0 0 512 512" style="enable-background:new 0 0 512 512;" xml:space="preserve">
<path style="fill:#EB86BF;" d="M0,256.006C0,397.402,114.606,512.004,255.996,512C397.394,512.004,512,397.402,512,256.006
	C512.009,114.61,397.394,0,255.996,0C114.606,0,0,114.614,0,256.006z"/>
<path style="fill:#D670AD;" d="M501.362,329.071c-0.141-0.117-74.822-75.007-75.465-75.465c-0.457-0.641-0.991-1.175-1.632-1.632
	c-1.281-1.797-3.279-3.045-5.657-3.045H294.066c-0.161-0.199-0.231-0.443-0.417-0.628c-0.29-0.29-51.937-51.938-52.227-52.228
	c-0.29-0.29-0.657-0.423-0.98-0.652c-0.228-0.323-0.362-0.691-0.652-0.98c-2.762-2.762-7.235-2.762-9.998,0l-12.756,12.756
	c-0.146-0.124-0.319-0.21-0.476-0.321C216.102,206.237,99.69,89.824,99.05,89.366c-1.281-1.797-3.28-3.045-5.659-3.045
	c-3.907,0-7.07,3.162-7.07,7.07v325.217c0,2.379,1.248,4.377,3.045,5.659c0.457,0.641,66.275,66.459,66.915,66.915
	c0.314,0.439,0.725,0.771,1.121,1.12C187.75,504.978,221.05,512,255.996,512C371.998,512.003,469.911,434.85,501.362,329.071z"/>
<g>
	<path style="fill:#F4F6F9;" d="M418.608,248.93h-223.31l44.491-44.491c2.762-2.762,2.762-7.235,0-9.997
		c-2.762-2.762-7.235-2.762-9.997,0l-56.55,56.55c-0.656,0.653-1.175,1.438-1.536,2.308c-0.715,1.727-0.715,3.673,0,5.401
		c0.359,0.869,0.88,1.654,1.536,2.307l56.55,56.55c1.381,1.381,3.189,2.071,4.998,2.071s3.618-0.69,4.998-2.071
		c2.762-2.762,2.762-7.235,0-9.997l-44.491-44.491h223.311c3.908,0,7.07-3.163,7.07-7.07
		C425.679,252.095,422.516,248.93,418.608,248.93z"/>
	<path style="fill:#F4F6F9;" d="M93.392,86.322c-3.908,0-7.07,3.163-7.07,7.07v325.217c0,3.908,3.163,7.07,7.07,7.07
		c3.908,0,7.07-3.163,7.07-7.07V93.392C100.462,89.484,97.299,86.322,93.392,86.322z"/>
</g>
<g>
</g>
<g>
</g>
<g>
</g>
<g>
</g>
<g>
</g>
<g>
</g>
<g>
</g>
<g>
</g>
<g>
</g>
<g>
</g>
<g>
</g>
<g>
</g>
<g>
</g>
<g>
</g>
<g>
</g>
</svg>
