<svg xmlns="http://www.w3.org/2000/svg" viewBox="0 0 512 512"><path d="M0 256.006C0 397.402 114.606 512.004 255.996 512 397.394 512.004 512 397.402 512 256.006 512.009 114.61 397.394 0 255.996 0 114.606 0 0 114.614 0 256.006z" fill="#eb86bf"/><path d="M501.362 329.071c-.141-.117-74.822-75.007-75.465-75.465a6.872 6.872 0 0 0-1.632-1.632c-1.281-1.797-3.279-3.045-5.657-3.045H294.066c-.161-.199-.231-.443-.417-.628l-52.227-52.228c-.29-.29-.657-.423-.98-.652-.228-.323-.362-.691-.652-.98a7.068 7.068 0 0 0-9.998 0l-12.756 12.756c-.146-.124-.319-.21-.476-.321-.458-.639-116.87-117.052-117.51-117.51-1.281-1.797-3.28-3.045-5.659-3.045a7.066 7.066 0 0 0-7.07 7.07v325.217c0 2.379 1.248 4.377 3.045 5.659.457.641 66.275 66.459 66.915 66.915.314.439.725.771 1.121 1.12C187.75 504.978 221.05 512 255.996 512c116.002.003 213.915-77.15 245.366-182.929z" fill="#d670ad"/><g fill="#f4f6f9"><path d="M418.608 248.93h-223.31l44.491-44.491a7.066 7.066 0 0 0 0-9.997 7.066 7.066 0 0 0-9.997 0l-56.55 56.55a7.072 7.072 0 0 0-1.536 2.308 7.068 7.068 0 0 0 0 5.401c.359.869.88 1.654 1.536 2.307l56.55 56.55c1.381 1.381 3.189 2.071 4.998 2.071s3.618-.69 4.998-2.071a7.066 7.066 0 0 0 0-9.997l-44.491-44.491h223.311a7.066 7.066 0 0 0 7.07-7.07 7.067 7.067 0 0 0-7.07-7.07zM93.392 86.322a7.066 7.066 0 0 0-7.07 7.07v325.217a7.066 7.066 0 0 0 7.07 7.07 7.066 7.066 0 0 0 7.07-7.07V93.392a7.066 7.066 0 0 0-7.07-7.07z"/></g></svg>