<?xml version="1.0" encoding="iso-8859-1"?>
<!-- Generator: Adobe Illustrator 19.0.0, SVG Export Plug-In . SVG Version: 6.00 Build 0)  -->
<svg version="1.1" id="Layer_1" xmlns="http://www.w3.org/2000/svg" xmlns:xlink="http://www.w3.org/1999/xlink" x="0px" y="0px"
	 viewBox="0 0 512 512" style="enable-background:new 0 0 512 512;" xml:space="preserve">
<path style="fill:#AB91EA;" d="M0,256.006C0,397.402,114.606,512.004,255.996,512C397.394,512.004,512,397.402,512,256.006
	C512.009,114.61,397.394,0,255.996,0C114.606,0,0,114.614,0,256.006z"/>
<path style="fill:#947ADB;" d="M511.774,264.933c0,0-115.356-115.356-115.358-115.358l-8.159-8.159
	c-2.762-2.762-7.235-2.762-9.997,0c-2.762,2.762-2.762,7.235,0,9.998l23.28,23.281h-59.955c-33.819,0-57.895,29.874-80.156,62.738
	c-0.055-0.055-0.117-0.11-0.173-0.166c-0.526-0.553-40.256-40.258-40.803-40.803c-10.995-11.548-26.5-21.77-47.041-21.77H93.391
	c-3.904,0-7.07,3.166-7.07,7.07c0,2.375,1.248,4.374,3.045,5.657c0.457,0.641,119.449,119.682,119.658,119.906
	c-10.837,9.727-22.423,15.836-35.5,15.836H93.391c-3.904,0-7.07,3.162-7.07,7.07c0,2.377,1.248,4.375,3.045,5.657
	c0.457,0.641,0.992,1.175,1.633,1.633c0.455,0.639,172.362,172.545,173.002,173.002c0.348,0.487,0.791,0.864,1.241,1.241
	C399.381,507.001,507.167,399.11,511.774,264.933z"/>
<g>
	<path style="fill:#F4F6F9;" d="M93.392,188.835h80.02c36.551,0,54.623,44.563,54.802,45.012c1.098,2.779,3.763,4.474,6.579,4.474
		c0.863,0,1.737-0.159,2.589-0.494c3.628-1.433,5.413-5.526,3.987-9.155c-0.863-2.206-21.717-53.978-67.958-53.978H93.392
		c-3.904,0-7.07,3.166-7.07,7.07S89.487,188.835,93.392,188.835z"/>
	<path style="fill:#F4F6F9;" d="M341.585,188.835h59.956l-23.281,23.281c-2.762,2.762-2.762,7.235,0,9.997
		c1.381,1.381,3.189,2.071,4.998,2.071s3.618-0.69,4.998-2.071l35.349-35.349c2.762-2.762,2.762-7.235,0-9.997l-35.349-35.349
		c-2.762-2.762-7.235-2.762-9.997,0c-2.762,2.762-2.762,7.235,0,9.997l23.281,23.281h-59.956c-38.816,0-64.8,39.35-89.931,77.41
		c-24.127,36.544-46.917,71.058-78.128,71.058H93.392c-3.904,0-7.07,3.163-7.07,7.07c0,3.908,3.166,7.07,7.07,7.07h80.134
		c38.816,0,64.8-39.355,89.931-77.41C287.583,223.354,310.374,188.835,341.585,188.835z"/>
	<path style="fill:#F4F6F9;" d="M388.257,289.886c-2.762-2.762-7.235-2.762-9.997,0s-2.762,7.235,0,9.997l23.281,23.281h-60.699
		c-38.035,0-64.561-38.884-64.828-39.278c-2.167-3.245-6.556-4.108-9.804-1.947c-3.242,2.175-4.118,6.553-1.954,9.797
		c1.239,1.865,30.907,45.568,76.586,45.568h60.699l-23.281,23.281c-2.762,2.762-2.762,7.235,0,9.997
		c1.381,1.381,3.189,2.071,4.998,2.071s3.618-0.69,4.998-2.071l35.349-35.349c2.762-2.762,2.762-7.235,0-9.997L388.257,289.886z"/>
</g>
<g>
</g>
<g>
</g>
<g>
</g>
<g>
</g>
<g>
</g>
<g>
</g>
<g>
</g>
<g>
</g>
<g>
</g>
<g>
</g>
<g>
</g>
<g>
</g>
<g>
</g>
<g>
</g>
<g>
</g>
</svg>
