<?xml version="1.0" encoding="iso-8859-1"?>
<!-- Generator: Adobe Illustrator 19.0.0, SVG Export Plug-In . SVG Version: 6.00 Build 0)  -->
<svg version="1.1" id="Layer_1" xmlns="http://www.w3.org/2000/svg" xmlns:xlink="http://www.w3.org/1999/xlink" x="0px" y="0px"
	 viewBox="0 0 512 512" style="enable-background:new 0 0 512 512;" xml:space="preserve">
<path style="fill:#FA6E51;" d="M0,256.006C0,397.402,114.606,512.004,255.996,512C397.394,512.004,512,397.402,512,256.006
	C512.009,114.61,397.394,0,255.996,0C114.606,0,0,114.614,0,256.006z"/>
<path style="fill:#E8573F;" d="M512,256.005c0.002-34.951-7.022-68.255-19.7-98.606c-0.349-0.395-67.393-67.577-68.033-68.033
	c-1.281-1.797-3.28-3.045-5.658-3.045c-3.908,0-7.07,3.162-7.07,7.07v230.38L282.208,194.442c-2.762-2.762-7.235-2.762-9.998,0
	c-2.762,2.762-2.762,7.235,0,9.998l44.491,44.491H93.391c-3.907,0-7.07,3.162-7.07,7.07c0,2.378,1.247,4.375,3.045,5.657
	c0.457,0.641,0.991,1.175,1.632,1.632c0.457,0.641,236.014,236.198,236.655,236.655c0.397,0.557,0.885,1.004,1.418,1.418
	C434.847,469.91,512,372.001,512,256.005z"/>
<g>
	<path style="fill:#F4F6F9;" d="M340.296,253.301c-0.359-0.87-0.88-1.654-1.536-2.308l-56.55-56.55
		c-2.762-2.762-7.235-2.762-9.997,0c-2.762,2.762-2.762,7.235,0,9.997l44.491,44.491H93.392c-3.908,0-7.07,3.163-7.07,7.07
		c0,3.908,3.163,7.07,7.07,7.07h223.311l-44.491,44.491c-2.762,2.762-2.762,7.235,0,9.997c1.381,1.381,3.189,2.071,4.998,2.071
		s3.618-0.69,4.998-2.071l56.55-56.55c0.656-0.654,1.177-1.439,1.536-2.308C341.009,256.973,341.009,255.028,340.296,253.301z"/>
	<path style="fill:#F4F6F9;" d="M418.608,86.322c-3.908,0-7.07,3.163-7.07,7.07v325.217c0,3.908,3.162,7.07,7.07,7.07
		s7.07-3.162,7.07-7.07V93.392C425.678,89.484,422.516,86.322,418.608,86.322z"/>
</g>
<g>
</g>
<g>
</g>
<g>
</g>
<g>
</g>
<g>
</g>
<g>
</g>
<g>
</g>
<g>
</g>
<g>
</g>
<g>
</g>
<g>
</g>
<g>
</g>
<g>
</g>
<g>
</g>
<g>
</g>
</svg>
